<svg id="Layer_4" data-name="Layer 4" xmlns="http://www.w3.org/2000/svg" viewBox="0 0 124 30"><defs><style>.cls-1{fill:#fff;}</style></defs><title>logo</title><path class="cls-1" d="M25.854,29.706h-7.04L7.04,11.471V29.706H0V0H7.04L18.814,18.4V0h7.04V29.706Z"/><path class="cls-1" d="M43.968,7.185a7.292,7.292,0,0,1,2.8,3.319V6.261h7V29.706h-7V25.462a7.289,7.289,0,0,1-2.8,3.32A8.19,8.19,0,0,1,39.439,30a9.162,9.162,0,0,1-5.084-1.45,9.858,9.858,0,0,1-3.541-4.18,14.749,14.749,0,0,1-1.3-6.387,14.715,14.715,0,0,1,1.3-6.408,9.886,9.886,0,0,1,3.541-4.159,9.162,9.162,0,0,1,5.084-1.45A8.19,8.19,0,0,1,43.968,7.185Zm-5.908,6.6a6.006,6.006,0,0,0-1.379,4.2,6,6,0,0,0,1.379,4.2,5.093,5.093,0,0,0,7.287-.043,5.923,5.923,0,0,0,1.421-4.159,5.91,5.91,0,0,0-1.421-4.18A4.743,4.743,0,0,0,41.7,12.27,4.692,4.692,0,0,0,38.06,13.781Z"/><path class="cls-1" d="M95.059,8.676q2.428,2.669,2.428,7.416V29.706h-7V16.933a4.84,4.84,0,0,0-1.173-3.466,4.183,4.183,0,0,0-3.19-1.24,4.275,4.275,0,0,0-3.314,1.324A5.3,5.3,0,0,0,81.6,17.268V29.706h-7.04V16.933A4.893,4.893,0,0,0,73.4,13.467a4.116,4.116,0,0,0-3.17-1.24,4.378,4.378,0,0,0-3.335,1.3,5.228,5.228,0,0,0-1.235,3.738V29.706H58.624V6.261h7.039v3.992a6.943,6.943,0,0,1,2.779-3.11,8.3,8.3,0,0,1,4.384-1.134,8.7,8.7,0,0,1,4.652,1.239,7.739,7.739,0,0,1,3.046,3.55A9.321,9.321,0,0,1,83.8,7.311a8.481,8.481,0,0,1,4.591-1.3A8.569,8.569,0,0,1,95.059,8.676Z"/><path class="cls-1" d="M123.794,19.286H107.862a5.49,5.49,0,0,0,1.317,3.8,4.2,4.2,0,0,0,3.046,1.156,4.11,4.11,0,0,0,2.594-.8,3.74,3.74,0,0,0,1.358-2.059h7.452a10.058,10.058,0,0,1-1.976,4.433,10.562,10.562,0,0,1-3.871,3.067,12.97,12.97,0,0,1-11.218-.336,10.252,10.252,0,0,1-4.1-4.18,13.19,13.19,0,0,1-1.482-6.387,13.31,13.31,0,0,1,1.462-6.408,10.123,10.123,0,0,1,4.1-4.159A13.267,13.267,0,0,1,118.565,7.4a9.98,9.98,0,0,1,4.014,4.012A12.141,12.141,0,0,1,124,17.353,10.171,10.171,0,0,1,123.794,19.286Zm-8.131-6.491a4.419,4.419,0,0,0-3.109-1.156,4.555,4.555,0,0,0-3.211,1.177,4.967,4.967,0,0,0-1.441,3.445h8.975A4.37,4.37,0,0,0,115.663,12.795Z"/></svg>